<svg xmlns="http://www.w3.org/2000/svg" viewBox="0 0 677.33 677.33"><defs><style>.cls-1{fill:#8a2be2;}</style></defs><g id="Layer_2" data-name="Layer 2"><g id="Layer_1-2" data-name="Layer 1"><path class="cls-1" d="M550,74A338.67,338.67,0,0,0,0,338.66C0,447,50.86,543.43,130,605.42A338.68,338.68,0,0,0,550,74ZM441.58,506.65q-12.52-36.27-25.17-72.83H264l-25.2,72.94H135.19Q209.67,307.46,284,108.45H397.52l148.72,398C544.38,507,445.26,507.15,441.58,506.65Z"/><path class="cls-1" d="M390.88,359.33c-2,.6-95.09.85-101,.34a.7.7,0,0,1-.14-.16c0-.07-.1-.17-.08-.23q24.94-72.11,49.9-144.21c.23-.67.51-1.33.77-2l.42-.08Z"/></g></g></svg>